<svg width="141.73192027587393" height="141.73192027587393" xmlns="http://www.w3.org/2000/svg">

 <g>
  <title>background</title>
  <rect height="402" width="582" y="-1" x="-1" fill="none" id="canvas_background"/>
 </g>
 <g>
  <title>Layer 1</title>
  <path d="m115.619057,71.097267c-11.665894,11.664925 -30.131454,12.381165 -42.632484,2.148727l-4.5243,-4.525291c-10.234425,-12.501038 -9.516205,-30.965797 2.149712,-42.634687c12.430687,-12.428719 32.580353,-12.426738 45.007072,0.003962c12.427711,12.430706 12.429695,32.577587 0,45.00729m11.008125,11.497513c18.643082,-18.642082 18.643082,-48.870838 0,-67.513916c-18.642067,-18.643076 -48.870613,-18.643076 -67.513695,0c-16.726158,16.726164 -18.43602,42.770405 -5.150394,61.412491l-50.753025,50.754066c-3.106683,3.107651 -3.106683,8.145142 0,11.253799c3.104702,3.107666 8.143116,3.106689 11.251781,0l50.752071,-50.755051c18.643074,13.285629 44.688095,11.574783 61.413261,-5.15139" stroke="#0072bf" fill="#0072bf" id="svg_1"/>
 </g>
</svg>